<svg width="61" height="62" viewBox="0 0 61 62" fill="none" xmlns="http://www.w3.org/2000/svg">
<path d="M30.5 61.3727C47.3281 61.3727 60.97 47.6339 60.97 30.6863C60.97 13.7387 47.3281 0 30.5 0C13.6718 0 0.0299072 13.7387 0.0299072 30.6863C0.0299072 47.6339 13.6718 61.3727 30.5 61.3727Z" fill="#AAC840"/>
<path d="M29.7909 24.17C29.7909 23.7558 29.4551 23.42 29.0409 23.42C28.6267 23.42 28.2909 23.7558 28.2909 24.17H29.7909ZM29.0409 32.5002H28.2909C28.2909 32.7474 28.4127 32.9787 28.6165 33.1186L29.0409 32.5002ZM35.4688 37.8212C35.8103 38.0555 36.2772 37.9687 36.5116 37.6272C36.7459 37.2856 36.6591 36.8188 36.3176 36.5844L35.4688 37.8212ZM28.2909 24.17V32.5002H29.7909V24.17H28.2909ZM28.6165 33.1186L35.4688 37.8212L36.3176 36.5844L29.4653 31.8818L28.6165 33.1186Z" fill="white"/>
<circle cx="30.5" cy="30.6863" r="15" stroke="white" stroke-width="1.5"/>
</svg>
