<svg width="50" height="37" viewBox="0 0 50 37" fill="none" xmlns="http://www.w3.org/2000/svg">
<path d="M42.8572 36.2142C41.4445 36.2142 40.0635 35.7952 38.8889 35.0104C37.7142 34.2255 36.7987 33.1099 36.2581 31.8048C35.7175 30.4996 35.576 29.0634 35.8516 27.6778C36.1272 26.2922 36.8075 25.0195 37.8065 24.0206C38.8054 23.0216 40.0781 22.3413 41.4637 22.0657C42.8493 21.7901 44.2855 21.9316 45.5906 22.4722C46.8958 23.0128 48.0114 23.9283 48.7963 25.103C49.5811 26.2776 50 27.6586 50 29.0713C49.9977 30.965 49.2444 32.7804 47.9053 34.1195C46.5663 35.4585 44.7509 36.2118 42.8572 36.2142ZM42.8572 25.4999C42.1508 25.4999 41.4603 25.7094 40.873 26.1018C40.2857 26.4942 39.828 27.052 39.5576 27.7046C39.2873 28.3572 39.2166 29.0753 39.3544 29.7681C39.4922 30.4608 39.8324 31.0972 40.3318 31.5967C40.8313 32.0962 41.4677 32.4363 42.1605 32.5741C42.8532 32.7119 43.5713 32.6412 44.2239 32.3709C44.8765 32.1006 45.4343 31.6428 45.8267 31.0555C46.2192 30.4682 46.4286 29.7777 46.4286 29.0713C46.4277 28.1244 46.0511 27.2165 45.3815 26.547C44.712 25.8774 43.8041 25.5008 42.8572 25.4999Z" fill="#AAC840"/>
<path d="M39.2856 0.5H28.5714V4.07142H39.2856C39.7592 4.07142 40.2134 4.25956 40.5483 4.59444C40.8832 4.92933 41.0713 5.38353 41.0713 5.85713C41.0713 6.33073 40.8832 6.78493 40.5483 7.11982C40.2134 7.4547 39.7592 7.64284 39.2856 7.64284H33.9285C33.6644 7.643 33.4036 7.70174 33.165 7.81481C32.9263 7.92789 32.7157 8.09249 32.5483 8.29677C32.381 8.50104 32.261 8.7399 32.197 8.99613C32.1331 9.25236 32.1267 9.51958 32.1785 9.77855L33.8285 18.0303L29.3464 25.4999H24.5428L19.95 10.1875C19.7322 9.45 19.2809 8.80316 18.6638 8.34426C18.0468 7.88536 17.2975 7.63921 16.5285 7.64284H7.14284V11.2143H16.5285L17.6 14.7857H8.92855C6.56142 14.7885 4.29206 15.7301 2.61824 17.4039C0.94443 19.0777 0.00283545 21.3471 0 23.7142V27.2857C0 27.7593 0.188137 28.2135 0.523022 28.5483C0.857908 28.8832 1.31211 29.0714 1.78571 29.0714H3.57142C3.57142 30.9658 4.32397 32.7826 5.66351 34.1221C7.00305 35.4617 8.81986 36.2142 10.7143 36.2142C12.6087 36.2142 14.4255 35.4617 15.765 34.1221C17.1046 32.7826 17.8571 30.9658 17.8571 29.0714H30.3571C30.6652 29.0713 30.9681 28.9915 31.2363 28.8398C31.5044 28.688 31.7287 28.4694 31.8874 28.2053L37.2446 19.2767C37.4732 18.8956 37.5516 18.4429 37.4642 18.0071L36.1071 11.2143H39.2856C40.7064 11.2143 42.069 10.6499 43.0737 9.6452C44.0784 8.64054 44.6428 7.27793 44.6428 5.85713C44.6428 4.43633 44.0784 3.07372 43.0737 2.06907C42.069 1.06441 40.7064 0.5 39.2856 0.5ZM10.7143 32.6428C9.76735 32.6418 8.8595 32.2653 8.18993 31.5957C7.52037 30.9261 7.14379 30.0183 7.14284 29.0714H14.2857C14.2847 30.0183 13.9082 30.9261 13.2386 31.5957C12.569 32.2653 11.6612 32.6418 10.7143 32.6428ZM3.57142 25.4999V23.7142C3.57284 22.2939 4.1377 20.9321 5.14206 19.9277C6.1464 18.9234 7.50819 18.3585 8.92855 18.3571H18.6714L20.8142 25.4999H3.57142Z" fill="#AAC840"/>
</svg>
